<mxfile host="app.diagrams.net" version="16.5.3">
  <diagram id="context" name="Contexto">
    <mxGraphModel>
      <root>
        <mxCell id="0"/>
        <mxCell id="1" parent="0"/>
        <mxCell id="u" value="Usuario" style="ellipse;whiteSpace=wrap;html=1;" vertex="1" parent="1">
          <mxGeometry x="20" y="100" width="80" height="40" as="geometry"/>
        </mxCell>
        <mxCell id="gss" value="GSS" style="rounded=1;whiteSpace=wrap;html=1;fillColor=#dae8fc;" vertex="1" parent="1">
          <mxGeometry x="200" y="90" width="140" height="60" as="geometry"/>
        </mxCell>
        <mxCell id="e1" style="endArrow=block;" edge="1" parent="1" source="u" target="gss">
          <mxGeometry relative="1" as="geometry"/>
        </mxCell>
      </root>
    </mxGraphModel>
  </diagram>

  <diagram id="modules" name="Vista de mÃ³dulos">
    <mxGraphModel>
      <root>
        <mxCell id="0"/>
        <mxCell id="1" parent="0"/>
        <mxCell id="g" value="GSS" style="rounded=1;whiteSpace=wrap;html=1;fillColor=#dae8fc;" vertex="1" parent="1">
          <mxGeometry x="120" y="40" width="280" height="220" as="geometry"/>
        </mxCell>
        <mxCell id="c" value="Gestor de clientes" style="rounded=1;whiteSpace=wrap;html=1;" vertex="1" parent="g">
          <mxGeometry x="20" y="20" width="120" height="50" as="geometry"/>
        </mxCell>
        <mxCell id="p" value="Pagos" style="rounded=1;whiteSpace=wrap;html=1;" vertex="1" parent="g">
          <mxGeometry x="160" y="20" width="100" height="50" as="geometry"/>
        </mxCell>
        <mxCell id="r" value="Reporteador" style="rounded=1;whiteSpace=wrap;html=1;" vertex="1" parent="g">
          <mxGeometry x="20" y="100" width="120" height="50" as="geometry"/>
        </mxCell>
        <mxCell id="n" value="Notificador" style="rounded=1;whiteSpace=wrap;html=1;" vertex="1" parent="g">
          <mxGeometry x="160" y="100" width="100" height="50" as="geometry"/>
        </mxCell>
        <mxCell id="s" value="Simulador" style="rounded=1;whiteSpace=wrap;html=1;" vertex="1" parent="g">
          <mxGeometry x="90" y="170" width="100" height="50" as="geometry"/>
        </mxCell>
      </root>
    </mxGraphModel>
  </diagram>

  <diagram id="tyk" name="Tyk">
    <mxGraphModel>
      <root>
        <mxCell id="0"/>
        <mxCell id="1" parent="0"/>
        <mxCell id="gateway" value="Tyk Gateway" style="rounded=1;whiteSpace=wrap;html=1;fillColor=#ffe6cc;" vertex="1" parent="1">
          <mxGeometry x="210" y="80" width="120" height="50" as="geometry"/>
        </mxCell>
        <mxCell id="dash" value="Tyk Dashboard" style="rounded=1;whiteSpace=wrap;html=1;" vertex="1" parent="1">
          <mxGeometry x="40" y="80" width="120" height="50" as="geometry"/>
        </mxCell>
        <mxCell id="pump" value="Tyk Pump" style="rounded=1;whiteSpace=wrap;html=1;" vertex="1" parent="1">
          <mxGeometry x="40" y="160" width="120" height="50" as="geometry"/>
        </mxCell>
        <mxCell id="redis" value="Redis" style="rounded=1;whiteSpace=wrap;html=1;" vertex="1" parent="1">
          <mxGeometry x="210" y="160" width="120" height="50" as="geometry"/>
        </mxCell>
      </root>
    </mxGraphModel>
  </diagram>
</mxfile>
